# xmcd CD database file
#
# Track frame offsets:
#	150
#	16665
#	28382
#	40160
#	65260
#	94267
#	113137
#	139067
#	174665
#	193082
#
# Disc length: 2907 seconds
#
# Revision: 0
# Processed by: cddbd v1.5.1PL0 Copyright (c) Steve Scherf et al.
# Submitted via: CDex 1.51
#
DISCID=850b590a
DTITLE=Bud Powell - New York All Star Sessions
DYEAR=1957
DGENRE=Jazz
TTITLE0=Lullaby of Birdland
TTITLE1=I've Got You Under My Skin
TTITLE2=Hallelujan
TTITLE3=Dance of The Infidels
TTITLE4=Woody'n You
TTITLE5=All God's Children Got Rhythm
TTITLE6=Move
TTITLE7=Hot House
TTITLE8=52nd Street Theme
TTITLE9=Jumping with Symphony Sid
EXTD=YEAR: 1957
EXTT0=
EXTT1=
EXTT2=
EXTT3=
EXTT4=
EXTT5=
EXTT6=
EXTT7=
EXTT8=
EXTT9=
PLAYORDER=
